<?xml version="1.0"?>
<svg xmlns="http://www.w3.org/2000/svg" xmlns:xlink="http://www.w3.org/1999/xlink" xmlns:svgjs="http://svgjs.com/svgjs" version="1.1" width="512" height="512" x="0" y="0" viewBox="0 0 512 512" style="enable-background:new 0 0 512 512" xml:space="preserve" class=""><g><path xmlns="http://www.w3.org/2000/svg" d="m368 512h-309.332031c-32.363281 0-58.667969-26.304688-58.667969-58.667969v-394.664062c0-32.363281 26.304688-58.667969 58.667969-58.667969h309.332031c32.363281 0 58.667969 26.304688 58.667969 58.667969v394.664062c0 32.363281-26.304688 58.667969-58.667969 58.667969zm-309.332031-480c-14.699219 0-26.667969 11.96875-26.667969 26.667969v394.664062c0 14.699219 11.96875 26.667969 26.667969 26.667969h309.332031c14.699219 0 26.667969-11.96875 26.667969-26.667969v-394.664062c0-14.699219-11.96875-26.667969-26.667969-26.667969zm0 0" fill="#1da1f2" data-original="#000000" style="" class=""/><path xmlns="http://www.w3.org/2000/svg" d="m133.332031 426.667969h-32c-20.585937 0-37.332031-16.746094-37.332031-37.335938v-53.332031c0-20.585938 16.746094-37.332031 37.332031-37.332031h32c8.832031 0 16 7.167969 16 16s-7.167969 16-16 16h-32c-2.941406 0-5.332031 2.386719-5.332031 5.332031v53.332031c0 2.945313 2.390625 5.335938 5.332031 5.335938h16v-6.230469c-6.226562-2.21875-10.664062-8.128906-10.664062-15.105469 0-8.832031 7.167969-16 16-16h10.664062c8.832031 0 16 7.167969 16 16v37.335938c0 8.832031-7.167969 16-16 16zm0 0" fill="#1da1f2" data-original="#000000" style="" class=""/><path xmlns="http://www.w3.org/2000/svg" d="m202.667969 426.667969c-8.832031 0-16-7.167969-16-16v-96c0-8.832031 7.167969-16 16-16s16 7.167969 16 16v96c0 8.832031-7.167969 16-16 16zm0 0" fill="#1da1f2" data-original="#000000" style="" class=""/><path xmlns="http://www.w3.org/2000/svg" d="m266.667969 426.667969c-8.832031 0-16-7.167969-16-16v-74.667969c0-20.585938 16.746093-37.332031 37.332031-37.332031h37.332031c8.832031 0 16 7.167969 16 16s-7.167969 16-16 16h-37.332031c-2.945312 0-5.332031 2.386719-5.332031 5.332031v74.667969c0 8.832031-7.167969 16-16 16zm0 0" fill="#1da1f2" data-original="#000000" style="" class=""/><path xmlns="http://www.w3.org/2000/svg" d="m325.332031 384h-58.664062c-8.832031 0-16-7.167969-16-16s7.167969-16 16-16h58.664062c8.832031 0 16 7.167969 16 16s-7.167969 16-16 16zm0 0" fill="#1da1f2" data-original="#000000" style="" class=""/></g></svg>
